<svg width="22" height="23" viewBox="0 0 22 23" fill="none" xmlns="http://www.w3.org/2000/svg">
<path d="M19.5334 9.53891H18.8118V9.5H10.7493V13.25H15.8122C15.0735 15.433 13.0888 17 10.7493 17C7.781 17 5.37435 14.4814 5.37435 11.375C5.37435 8.26859 7.781 5.75 10.7493 5.75C12.1195 5.75 13.3661 6.29094 14.3152 7.17453L16.8491 4.52281C15.2491 2.96234 13.109 2 10.7493 2C5.80211 2 1.79102 6.19766 1.79102 11.375C1.79102 16.5523 5.80211 20.75 10.7493 20.75C15.6966 20.75 19.7077 16.5523 19.7077 11.375C19.7077 10.7464 19.6459 10.1328 19.5334 9.53891Z" fill="#FFC107"/>
<path d="M2.82422 7.01141L5.76748 9.27031C6.56388 7.20688 8.4926 5.75 10.7497 5.75C12.1198 5.75 13.3664 6.29094 14.3155 7.17453L16.8494 4.52281C15.2494 2.96234 13.1093 2 10.7497 2C7.30876 2 4.32474 4.03297 2.82422 7.01141Z" fill="#FF3D00"/>
<path d="M10.7505 20.7481C13.0645 20.7481 15.167 19.8214 16.7567 18.3144L13.9841 15.8591C13.0544 16.5989 11.9185 16.9991 10.7505 16.9981C8.42048 16.9981 6.44204 15.4433 5.6967 13.2734L2.77539 15.6289C4.25799 18.665 7.26889 20.7481 10.7505 20.7481Z" fill="#4CAF50"/>
<path d="M19.5341 9.53891H18.8125V9.5H10.75V13.25H15.8128C15.4595 14.2889 14.8231 15.1968 13.9822 15.8614L13.9835 15.8605L16.7561 18.3158C16.5599 18.5023 19.7083 16.0625 19.7083 11.375C19.7083 10.7464 19.6465 10.1328 19.5341 9.53891Z" fill="#1976D2"/>
</svg>
