<svg width="21" height="20" viewBox="0 0 21 20" fill="none" xmlns="http://www.w3.org/2000/svg">
<path fill-rule="evenodd" clip-rule="evenodd" d="M20.1004 10.3734C20.1004 12.9195 19.089 15.3613 17.2886 17.1617C15.4883 18.962 13.0465 19.9734 10.5004 19.9734C7.95431 19.9734 5.51252 18.962 3.71217 17.1617C1.91182 15.3613 0.900391 12.9195 0.900391 10.3734C0.900391 7.82736 1.91182 5.38556 3.71217 3.58521C5.51252 1.78486 7.95431 0.773438 10.5004 0.773438C13.0465 0.773438 15.4883 1.78486 17.2886 3.58521C19.089 5.38556 20.1004 7.82736 20.1004 10.3734ZM12.9004 6.77344C12.9004 7.40996 12.6475 8.02041 12.1974 8.47049C11.7474 8.92058 11.1369 9.17344 10.5004 9.17344C9.86387 9.17344 9.25342 8.92058 8.80334 8.47049C8.35325 8.02041 8.10039 7.40996 8.10039 6.77344C8.10039 6.13692 8.35325 5.52647 8.80334 5.07638C9.25342 4.62629 9.86387 4.37344 10.5004 4.37344C11.1369 4.37344 11.7474 4.62629 12.1974 5.07638C12.6475 5.52647 12.9004 6.13692 12.9004 6.77344ZM10.5004 11.5734C9.35151 11.5732 8.22672 11.9028 7.25969 12.5231C6.29266 13.1434 5.52404 14.0283 5.04519 15.0726C5.7204 15.8582 6.55752 16.4884 7.49912 16.92C8.44073 17.3517 9.46456 17.5746 10.5004 17.5734C11.5362 17.5746 12.5601 17.3517 13.5017 16.92C14.4433 16.4884 15.2804 15.8582 15.9556 15.0726C15.4767 14.0283 14.7081 13.1434 13.7411 12.5231C12.7741 11.9028 11.6493 11.5732 10.5004 11.5734Z" fill="#6B7280"/>
</svg>
